<svg width="68" height="60" viewBox="0 0 68 60" fill="none" xmlns="http://www.w3.org/2000/svg">
<path d="M44.4054 60C43.2703 59.4292 42.1351 58.6137 41 57.5535C39.9069 56.4934 38.8559 55.3313 37.8468 54.0673C36.8799 52.8033 35.997 51.6004 35.1982 50.4587C35.03 50.4995 34.8408 50.5199 34.6306 50.5199C34.4204 50.5199 34.2102 50.5199 34 50.5199C30.5526 50.5199 27.7988 49.8675 25.7387 48.5627C23.6787 47.2579 22.2072 45.4026 21.3243 42.9969C20.4414 40.5505 20 37.6962 20 34.4343V15.6575C20 12.3955 20.4414 9.60245 21.3243 7.27829C22.2492 4.91335 23.7207 3.11927 25.7387 1.89603C27.7988 0.632009 30.5526 0 34 0C37.4474 0 40.1802 0.632009 42.1982 1.89603C44.2583 3.16004 45.7297 4.95413 46.6126 7.27829C47.5375 9.60245 48 12.3955 48 15.6575V34.4954C48 36.9011 47.7477 39.103 47.2432 41.1009C46.7387 43.0581 45.9399 44.7503 44.8468 46.1774C43.7538 47.5637 42.3033 48.6239 40.4955 49.3578C41 49.9694 41.5465 50.6014 42.1351 51.2538C42.7237 51.947 43.3123 52.579 43.9009 53.1498C44.4895 53.7207 45.036 54.1896 45.5405 54.5566L44.4054 60ZM34 45.0765C35.9339 45.0765 37.3844 44.7095 38.3514 43.9755C39.3183 43.2008 39.97 42.1407 40.3063 40.7951C40.6426 39.4088 40.8108 37.7982 40.8108 35.9633V14.2508C40.8108 12.4159 40.6426 10.8461 40.3063 9.54129C39.97 8.19572 39.3183 7.17635 38.3514 6.48318C37.3844 5.74924 35.9339 5.38226 34 5.38226C32.1081 5.38226 30.6577 5.74924 29.6486 6.48318C28.6817 7.17635 28.03 8.19572 27.6937 9.54129C27.3574 10.8461 27.1892 12.4159 27.1892 14.2508V35.9633C27.1892 37.7982 27.3574 39.4088 27.6937 40.7951C28.03 42.1407 28.6817 43.2008 29.6486 43.9755C30.6577 44.7095 32.1081 45.0765 34 45.0765Z" fill="#3C5BFA"/>
<rect x="10" y="18" width="48" height="20" rx="10" fill="#3C5BFA"/>
<path d="M14.3803 33L16.7883 21.66H18.3143L20.7363 33H19.2383L18.7203 30.144H16.4103L15.8643 33H14.3803ZM16.6203 29.01H18.5103L17.5583 23.9L16.6203 29.01ZM24.7719 33.126C23.9505 33.126 23.3205 32.9627 22.8819 32.636C22.4432 32.3093 22.1445 31.852 21.9859 31.264C21.8272 30.6667 21.7479 29.9713 21.7479 29.178V21.66H23.2599V29.248C23.2599 29.7333 23.2925 30.1767 23.3579 30.578C23.4232 30.9793 23.5632 31.2967 23.7779 31.53C24.0019 31.7633 24.3332 31.88 24.7719 31.88C25.2199 31.88 25.5512 31.7633 25.7659 31.53C25.9805 31.2967 26.1205 30.9793 26.1859 30.578C26.2512 30.1767 26.2839 29.7333 26.2839 29.248V21.66H27.7819V29.178C27.7819 29.9713 27.7025 30.6667 27.5439 31.264C27.3852 31.852 27.0865 32.3093 26.6479 32.636C26.2185 32.9627 25.5932 33.126 24.7719 33.126ZM29.4474 33V21.66H31.9114C32.7514 21.66 33.4141 21.7907 33.8994 22.052C34.3941 22.304 34.7441 22.6867 34.9494 23.2C35.1641 23.7133 35.2714 24.3527 35.2714 25.118V29.29C35.2714 30.0927 35.1641 30.7693 34.9494 31.32C34.7441 31.8707 34.4034 32.2907 33.9274 32.58C33.4608 32.86 32.8308 33 32.0374 33H29.4474ZM31.0294 31.866H31.9254C32.5041 31.866 32.9148 31.754 33.1574 31.53C33.4001 31.306 33.5448 30.9793 33.5914 30.55C33.6474 30.1207 33.6754 29.6027 33.6754 28.996V25.314C33.6754 24.726 33.6381 24.25 33.5634 23.886C33.4888 23.522 33.3254 23.256 33.0734 23.088C32.8214 22.92 32.4248 22.836 31.8834 22.836H31.0294V31.866ZM36.9142 33V21.66H38.4682V33H36.9142ZM39.6869 33L42.0949 21.66H43.6209L46.0429 33H44.5449L44.0269 30.144H41.7169L41.1709 33H39.6869ZM41.9269 29.01H43.8169L42.8649 23.9L41.9269 29.01ZM52.4015 35.296C52.1495 35.1653 51.8975 34.9787 51.6455 34.736C51.4029 34.4933 51.1695 34.2273 50.9455 33.938C50.7309 33.6487 50.5349 33.3733 50.3575 33.112C50.3202 33.1213 50.2782 33.126 50.2315 33.126C50.1849 33.126 50.1382 33.126 50.0915 33.126C49.3262 33.126 48.7149 32.9767 48.2575 32.678C47.8002 32.3793 47.4735 31.9547 47.2775 31.404C47.0815 30.844 46.9835 30.1907 46.9835 29.444V25.146C46.9835 24.3993 47.0815 23.76 47.2775 23.228C47.4829 22.6867 47.8095 22.276 48.2575 21.996C48.7149 21.7067 49.3262 21.562 50.0915 21.562C50.8569 21.562 51.4635 21.7067 51.9115 21.996C52.3689 22.2853 52.6955 22.696 52.8915 23.228C53.0969 23.76 53.1995 24.3993 53.1995 25.146V29.458C53.1995 30.0087 53.1435 30.5127 53.0315 30.97C52.9195 31.418 52.7422 31.8053 52.4995 32.132C52.2569 32.4493 51.9349 32.692 51.5335 32.86C51.6455 33 51.7669 33.1447 51.8975 33.294C52.0282 33.4527 52.1589 33.5973 52.2895 33.728C52.4202 33.8587 52.5415 33.966 52.6535 34.05L52.4015 35.296ZM50.0915 31.88C50.5209 31.88 50.8429 31.796 51.0575 31.628C51.2722 31.4507 51.4169 31.208 51.4915 30.9C51.5662 30.5827 51.6035 30.214 51.6035 29.794V24.824C51.6035 24.404 51.5662 24.0447 51.4915 23.746C51.4169 23.438 51.2722 23.2047 51.0575 23.046C50.8429 22.878 50.5209 22.794 50.0915 22.794C49.6715 22.794 49.3495 22.878 49.1255 23.046C48.9109 23.2047 48.7662 23.438 48.6915 23.746C48.6169 24.0447 48.5795 24.404 48.5795 24.824V29.794C48.5795 30.214 48.6169 30.5827 48.6915 30.9C48.7662 31.208 48.9109 31.4507 49.1255 31.628C49.3495 31.796 49.6715 31.88 50.0915 31.88Z" fill="white"/>
</svg>
