<?xml version="1.0" encoding="iso-8859-1"?>
<!-- Uploaded to: SVG Repo, www.svgrepo.com, Generator: SVG Repo Mixer Tools -->
<svg fill="#000000" version="1.1" id="Layer_1" xmlns="http://www.w3.org/2000/svg" xmlns:xlink="http://www.w3.org/1999/xlink" 
	 viewBox="0 0 512 512" xml:space="preserve">
<g>
	<g>
		<path d="M371.421,245.014v-37.372h-60.475v-60.475H250.47h-30.578h-60.475v60.475v30.578v29.898h-10.195v-93.827h-48.009v-18.15
			h23.245v-30.578h-23.245v-23.245H70.636v23.245H47.391v30.578h23.245v18.15H22.629v93.827H0l44.954,141.564h414.755L512,245.014
			H371.421z M310.944,238.22h29.899v6.795h-18.388l-7.337,23.103h-4.174V238.22z M250.469,177.745h29.898v29.898h-29.898V177.745z
			 M250.469,238.22h29.898v29.898h-29.898V238.22z M189.994,177.745h29.898v29.898h-29.898V177.745z M189.994,238.22h29.898v29.898
			h-29.898V238.22z M53.207,204.869h65.437v63.25H53.207V204.869z M437.337,379.104H67.326l-25.533-80.409h107.428h10.195h60.475
			h30.578h29.898h30.578h26.546l7.337-23.103h26.592h98.787L437.337,379.104z"/>
	</g>
</g>
<g>
	<g>
		<rect x="358.512" y="291.67" width="31.597" height="30.578"/>
	</g>
</g>
<g>
	<g>
		<rect x="408.19" y="291.67" width="31.597" height="30.578"/>
	</g>
</g>
</svg>